<svg id="SvgjsSvg1041" width="360" height="275" xmlns="http://www.w3.org/2000/svg" version="1.1" xmlns:xlink="http://www.w3.org/1999/xlink" xmlns:svgjs="http://svgjs.com/svgjs"><defs id="SvgjsDefs1042"><svg width="131px" height="131px" old_width="136px" old_height="136px" old_old_width="131px" old_old_height="131px" old_old_old_width="126px" old_old_old_height="126px" old_old_old_old_width="121px" old_old_old_old_height="121px" old_old_old_old_old_width="116px" old_old_old_old_old_height="116px" old_old_old_old_old_old_width="111px" old_old_old_old_old_old_height="111px" old_old_old_old_old_old_old_width="106px" old_old_old_old_old_old_old_height="106px" old_old_old_old_old_old_old_old_width="101px" old_old_old_old_old_old_old_old_height="101px" old_old_old_old_old_old_old_old_old_width="96px" old_old_old_old_old_old_old_old_old_height="96px" old_old_old_old_old_old_old_old_old_old_width="91px" old_old_old_old_old_old_old_old_old_old_height="91px" xmlns="http://www.w3.org/2000/svg" xmlns:xlink="http://www.w3.org/1999/xlink" version="1.1" x="0px" y="0px" viewBox="0 0 100 100" style="enable-background:new 0 0 100 100;" id="a1496413181509"><path d="M57.4,39.2c1.8-0.4,3.5-0.8,5.3-1.2c0.3-0.1,0.7,0,1,0.3c0.2,0.2,0.3,0.5,0.3,0.8c0.4,1.7,0.8,3.5,1.1,5.2  c0.1,0.6-0.5,1.2-1.1,1.1c-0.4,0-0.7-0.4-0.8-0.8c-0.2-1.1-0.5-2.1-0.7-3.2c-3.3,5-6.7,10-10,15c-0.4,0.6-1.4,0.5-1.7-0.1  c-1.5-3-3-6-4.5-9c-3.2,4.8-6.3,9.5-9.5,14.3c-0.3,0.5-0.9,0.6-1.4,0.3s-0.6-1-0.2-1.4c3.4-5.1,6.8-10.2,10.2-15.3  c0.2-0.3,0.4-0.6,0.7-0.7c0.5-0.2,1.1,0,1.3,0.5c1.5,3,3,5.9,4.5,8.9c3-4.5,6-9,9-13.4c-1,0.2-2,0.5-3.1,0.7  c-0.5,0.1-1.1-0.3-1.1-0.8C56.5,39.7,56.9,39.2,57.4,39.2z"></path></svg><!--?xml version="1.0"?-->
<svg width="721.60533333333px" height="253.33333333333px" id="t1496413181509"><path fill="#2a35a4" d="M33.6,36.4c-0.79999999999999-1.7777777777778-2.0888888888889-2.7111111111111-3.8222222222222-2.7111111111111c-1.7777777777778,0-3.1111111111111,1.0666666666667-3.1111111111111,2.5333333333333c0,1.3333333333333,0.75555555555555,2.2666666666666,2.6222222222222,2.9333333333333l2.5333333333333,0.88888888888888c3.6444444444444,1.2888888888889,6.6666666666666,2.6666666666666,6.6666666666666,6.8888888888888c0,4.4888888888888-4.4,6.8888888888888-8.6666666666666,6.8888888888888c-4.0888888888888,0-7.8222222222221-2.3555555555555-8.711111111111-6.311111111111l3.8222222222222-1.1555555555555c0.66666666666666,2.0888888888889,2.4,3.6,4.8888888888888,3.6c2.0444444444444,0,3.9111111111111-1.2,3.9111111111111-3.0222222222222c0-1.4666666666667-1.0222222222222-2.3555555555555-2.9777777777777-3.0666666666666l-2.6222222222222-0.93333333333332c-4.2666666666666-1.5111111111111-6.1333333333333-3.8222222222222-6.1333333333333-6.7555555555555c0-3.8666666666666,3.4666666666666-6.3555555555555,7.5999999999999-6.3555555555555c4,0,6.7555555555555,2.1777777777778,7.9999999999999,5.4666666666666z M56.696888888889,29.822222222222c5.2444444444444,0,12.355555555555,4,11.244444444444,13.688888888889l-18.4,0c0.7111111111111,4.1333333333333,4,6.1777777777777,7.7333333333333,6.1777777777777c3.0666666666666,0,4.7111111111111-0.79999999999999,6.3999999999999-2.1333333333333l2.7111111111111,2.5777777777778c-2.0444444444444,2.3111111111111-4.9777777777777,3.6444444444444-9.2444444444444,3.6444444444444c-5.8666666666666,0-12.4-4-12.4-11.955555555555c0-7.9999999999999,6.711111111111-12,11.955555555555-12z M56.696888888889,33.955555555555c-2.9777777777777,0-6.311111111111,2-7.111111111111,6.0444444444444l14.133333333333,0c-0.53333333333333-4.0444444444444-4.0444444444444-6.0444444444444-7.0222222222222-6.0444444444444z M88.149333333332,29.866666666667c4.4444444444444,0,8.7999999999999,2.8888888888889,8.7999999999999,10.088888888889l0,13.377777777778l-4.8,0l0-13.111111111111c0-4.4-2.0888888888889-6.1333333333333-5.0666666666666-6.1333333333333c-3.8222222222222,0-6.311111111111,3.5555555555555-6.8444444444444,5.8222222222222l0,13.422222222222l-4.8,0l0-23.111111111111l4.8,0l0,4.8888888888888c0.44444444444444-1.4222222222222,3.1111111111111-5.2444444444444,7.911111111111-5.2444444444444z M128.13511111111,30.177777777778l-10.311111111111,23.155555555555l-4.0888888888888,0l-10.311111111111-23.155555555555l4.8,0l7.5555555555555,17.155555555555l7.5555555555555-17.155555555555l4.8,0z M139.85422222222,21.911111111111l0,4.1777777777777l-4.8,0l0-4.1777777777777l4.8,0z M139.85422222222,30.222222222222l0,23.111111111111l-4.8,0l0-23.111111111111l4.8,0z M159.26222222222,36.4c-0.79999999999999-1.7777777777778-2.0888888888889-2.7111111111111-3.8222222222222-2.7111111111111c-1.7777777777778,0-3.1111111111111,1.0666666666667-3.1111111111111,2.5333333333333c0,1.3333333333333,0.75555555555555,2.2666666666666,2.6222222222222,2.9333333333333l2.5333333333333,0.88888888888888c3.6444444444444,1.2888888888889,6.6666666666666,2.6666666666666,6.6666666666666,6.8888888888888c0,4.4888888888888-4.4,6.8888888888888-8.6666666666666,6.8888888888888c-4.0888888888888,0-7.8222222222221-2.3555555555555-8.711111111111-6.311111111111l3.8222222222222-1.1555555555555c0.66666666666666,2.0888888888889,2.4,3.6,4.8888888888888,3.6c2.0444444444444,0,3.9111111111111-1.2,3.9111111111111-3.0222222222222c0-1.4666666666667-1.0222222222222-2.3555555555555-2.9777777777777-3.0666666666666l-2.6222222222222-0.93333333333332c-4.2666666666666-1.5111111111111-6.1333333333333-3.8222222222222-6.1333333333333-6.7555555555555c0-3.8666666666666,3.4666666666666-6.3555555555555,7.5999999999999-6.3555555555555c4,0,6.7555555555555,2.1777777777778,7.9999999999999,5.4666666666666z M176.09244444444,21.911111111111l0,4.1777777777777l-4.8,0l0-4.1777777777777l4.8,0z M176.09244444444,30.222222222222l0,23.111111111111l-4.8,0l0-23.111111111111l4.8,0z M195.41155555555,29.822222222222c5.2444444444444,0,11.955555555555,4,11.955555555555,12c0,8.0444444444444-6.711111111111,11.955555555555-11.955555555555,11.955555555555s-11.955555555555-3.9111111111111-11.955555555555-11.955555555555c0-7.9999999999999,6.711111111111-12,11.955555555555-12z M195.41155555555,34.088888888889c-3.3777777777777,0-7.2888888888888,2.5777777777778-7.2888888888888,7.7333333333333c0,5.1111111111111,3.9111111111111,7.6888888888888,7.2888888888888,7.6888888888888s7.2888888888888-2.5777777777778,7.2888888888888-7.6888888888888c0-5.1555555555555-3.9111111111111-7.7333333333333-7.2888888888888-7.7333333333333z M227.44177777778,29.866666666667c4.4444444444444,0,8.7999999999999,2.8888888888889,8.7999999999999,10.088888888889l0,13.377777777778l-4.8,0l0-13.111111111111c0-4.4-2.0888888888889-6.1333333333333-5.0666666666666-6.1333333333333c-3.8222222222222,0-6.311111111111,3.5555555555555-6.8444444444444,5.8222222222222l0,13.422222222222l-4.8,0l0-23.111111111111l4.8,0l0,4.8888888888888c0.44444444444444-1.4222222222222,3.1111111111111-5.2444444444444,7.911111111111-5.2444444444444z"></path></svg>
</defs><use id="SvgjsUse1043" xlink:href="#t1496413181509" fill="#2a35a4" x="76.23555946350098" y="99.13333225250244"></use><use id="SvgjsUse1044" xlink:href="#a1496413181509" fill="#2a35a4" x="1.9346733093261719" y="71.43450164794922"></use></svg>